<svg width="40" height="20" viewBox="0 0 40 20" xmlns="http://www.w3.org/2000/svg"><path d="m26.15 6.428 12.802-.908a1 1 0 0 1 .883 1.581L30.88 19.576a1 1 0 0 1-.812.417H9.982a1 1 0 0 1-.811-.416L.19 7.102a1 1 0 0 1 .882-1.582l12.764.908L19.29.333a1 1 0 0 1 1.496.006l5.364 6.09Zm2.68 11.587-8.309-3.105v3.105h8.31Zm-9.309 0V14.91l-8.309 3.105h8.31Zm-.959-3.847-8.489 3.17-6.246-8.682 14.735 5.512Zm2.9 0 8.49 3.17 6.246-8.682-14.735 5.512Zm-1.933-.724V2.994l-6.941 7.837 6.941 2.613Zm.992 0V2.996l6.942 7.835-6.942 2.613Zm-9.969-3.336 1.597-1.794-7.802-.56 6.205 2.354Zm18.863 0-1.597-1.794 7.803-.56-6.206 2.354Z" fill="#006CFF" fill-rule="evenodd"/></svg>